<svg xmlns="http://www.w3.org/2000/svg" width="124" height="32" fill="none" class="hidden sm:flex"><rect width="32" height="32" fill="#5384EE" rx="8"></rect><path fill="#242424" d="M22.018 23.277h-4.582c-.076 0-1.857-.024-1.857-2.186V6.79a1.79 1.79 0 1 0-3.579 0v14.301c0 3.745 2.8 5.766 5.436 5.766h4.582a1.79 1.79 0 1 0 0-3.58Z"></path><path fill="#5384EE" fill-rule="evenodd" d="M55 23.277h-4.581c-.076 0-1.857-.024-1.857-2.186V6.79a1.79 1.79 0 1 0-3.58 0v14.301c0 3.745 2.801 5.766 5.437 5.766H55a1.79 1.79 0 1 0 0-3.58Zm22.486-10.97a8.015 8.015 0 0 1 12.45 6.677 8.015 8.015 0 0 1-12.501 6.643 1.789 1.789 0 0 1-3.529-.417V6.79a1.79 1.79 0 1 1 3.58 0v5.517Zm0 6.677a4.44 4.44 0 0 0 4.435 4.436 4.44 4.44 0 0 0 4.435-4.436 4.44 4.44 0 0 0-4.435-4.436 4.44 4.44 0 0 0-4.435 4.436ZM64.397 10.77a8.015 8.015 0 0 0-8.014 8.016 8.015 8.015 0 1 0 16.028 0 8.015 8.015 0 0 0-8.014-8.016Zm0 12.451a4.44 4.44 0 0 1-4.435-4.435 4.44 4.44 0 0 1 4.435-4.436 4.44 4.44 0 0 1 4.435 4.436 4.44 4.44 0 0 1-4.435 4.435Zm34.961-12.45a8.015 8.015 0 0 0-8.014 8.015 8.015 8.015 0 1 0 16.028 0 8.015 8.015 0 0 0-8.014-8.016Zm0 12.45a4.44 4.44 0 0 1-4.435-4.435 4.44 4.44 0 0 1 4.435-4.436 4.44 4.44 0 0 1 4.435 4.436 4.44 4.44 0 0 1-4.435 4.435Zm23.415-9.35-4.839 4.946 4.839 4.947a1.79 1.79 0 0 1-.028 2.53 1.76 1.76 0 0 1-1.251.511c-.465 0-.929-.18-1.28-.538l-4.783-4.89-4.784 4.89c-.35.358-.827.538-1.279.538a1.79 1.79 0 0 1-1.279-3.042l4.838-4.946-4.838-4.946a1.79 1.79 0 1 1 2.558-2.504l4.784 4.89 4.783-4.89a1.79 1.79 0 1 1 2.559 2.504Z" clip-rule="evenodd"></path></svg>